{"title":"Grown Ups 2010 DVDSCR V2 XViD-FEEL-FREE","uid":5678824,"size":1292025163,"categoryP":"video","categoryS":"movies","magnet":"?xt=urn:btih:7e24d1167f9dd0d24828ed8ddcaac42735e4de2d&amp;dn=Grown+Ups+2010+DVDSCR+V2+XViD-FEEL-FREE&amp;tr=udp%3A%2F%2Ftracker.openbittorrent.com%3A80&amp;tr=udp%3A%2F%2Fopen.demonii.com%3A1337&amp;tr=udp%3A%2F%2Ftracker.coppersurfer.tk%3A6969&amp;tr=udp%3A%2F%2Fexodus.desync.com%3A6969","seeders":0,"leechers":1,"uploader":"johnnyrep","files":8,"time":1278708305,"description":"Genre:Comedy\nLanguage:English\nIMDb:http://www.imdb.com/title/tt1375670/\nSource:Grown Ups DvD Screener/KiNGDOM.Thanks\nSample:yes\nEncoder: Tony2\n.........................................\nGeneral\nComplete name : Grown Ups 2010 DVDSCR V2 XViD-FEEL-FREE\nFormat : AVI\nFormat/Info : Audio Video Interleave\nFile size : 1.17 GiB\nDuration : 1h 42mn\nOverall bit rate : 1 640 Kbps\n.........................................\nVideo\nID : 0\nFormat : MPEG-4 Visual\nFormat profile : Simple@L3\nFormat settings, BVOP : Yes\nFormat settings, QPel : No\nFormat settings, GMC : No warppoints\nFormat settings, Matrix : Default (H.263)\nCodec ID : XVID\nCodec ID/Hint : XviD\nDuration : 1h 42mn\nBit rate : 1 499 Kbps\nWidth : 720 pixels\nHeight : 320 pixels\nDisplay aspect ratio : 2.25:1\nFrame rate : 29.970 fps\nResolution : 24 bits\nScan type : Progressive\nBits/(Pixel*Frame) : 0.217\nStream size : 1.07 GiB (91%)\n............................................\nAudio\nID : 1\nFormat : MPEG Audio\nFormat version : Version 1\nFormat profile : Layer 3\nFormat settings, Mode : Joint stereo / MS Stereo\nCodec ID : 55\nCodec ID/Hint : MP3\nDuration : 1h 42mn\nBit rate mode : Constant\nBit rate : 128 Kbps\nChannel(s) : 2 channels\nSampling rate : 44.1 KHz\nResolution : 16 bits\nStream size : 93.8 MiB (8%)\nAlignment : Aligned on interleaves\nInterleave, duration : 26 ms (0.78 video frame)\nWriting library : LAME3.97\n...............................................\nPlot:\nAfter their high school basketball coach passes away, five good friends and former teammates reunite for a Fourth of July holiday weekend\n...................................................","torrent":{"xt":"urn:btih:7e24d1167f9dd0d24828ed8ddcaac42735e4de2d","amp;dn":"Grown+Ups+2010+DVDSCR+V2+XViD-FEEL-FREE","amp;tr":["udp%3A%2F%2Ftracker.openbittorrent.com%3A80","udp%3A%2F%2Fopen.demonii.com%3A1337","udp%3A%2F%2Ftracker.coppersurfer.tk%3A6969","udp%3A%2F%2Fexodus.desync.com%3A6969"],"infoHash":"7e24d1167f9dd0d24828ed8ddcaac42735e4de2d","infoHashBuffer":{"type":"Buffer","data":[126,36,209,22,127,157,208,210,72,40,237,141,220,170,196,39,53,228,222,45]},"announce":[],"urlList":[]}}